<svg xmlns="http://www.w3.org/2000/svg" xmlns:xlink="http://www.w3.org/1999/xlink" version="1.1" x="0px" y="0px" viewBox="0 0 100 125" style="enable-background:new 0 0 100 100;" xml:space="preserve"><g><path d="M17.154,62.669C17.154,62.669,17.154,62.67,17.154,62.669l0.002,0.002c0.266,0.265,0.553,0.493,0.853,0.69l7.443,6.023   c2.519,2.041,5.703,3.165,8.965,3.165h13.368c2.227,0,4.351,0.702,6.142,2.028l0.688,0.513c-0.527,0.912-0.809,1.951-0.797,3.037   c0.017,1.592,0.649,3.079,1.78,4.187l8.679,8.495c1.114,1.09,2.591,1.69,4.159,1.69c1.617,0,3.126-0.633,4.25-1.781l14.094-14.399   c2.293-2.343,2.252-6.115-0.09-8.409l-8.679-8.495c-1.114-1.09-2.591-1.69-4.159-1.69c-1.108,0-2.163,0.304-3.081,0.861   l-7.062-6.753c-1.557-1.486-3.603-2.305-5.761-2.305h-1.184c0.482-2.132,0.74-4.33,0.74-6.558c0-10.719-5.838-20.757-15.288-26.381   L45.404,4.76c0.081-0.3,0.018-0.621-0.171-0.868C45.043,3.645,44.75,3.5,44.438,3.5H27.264c-0.311,0-0.605,0.145-0.794,0.392   c-0.189,0.248-0.252,0.568-0.171,0.869l3.198,11.835c-0.196,0.117-0.381,0.246-0.574,0.367c-0.286,0.178-0.571,0.356-0.849,0.542   c-0.296,0.198-0.584,0.403-0.871,0.609c-0.271,0.194-0.541,0.388-0.804,0.589c-0.281,0.215-0.554,0.438-0.826,0.662   c-0.255,0.209-0.51,0.416-0.757,0.632c-0.266,0.232-0.523,0.473-0.78,0.713c-0.238,0.222-0.476,0.442-0.706,0.671   c-0.251,0.249-0.491,0.506-0.732,0.763c-0.22,0.234-0.443,0.466-0.655,0.706c-0.234,0.265-0.458,0.538-0.682,0.81   c-0.203,0.245-0.408,0.487-0.602,0.738c-0.217,0.279-0.421,0.566-0.628,0.852c-0.185,0.256-0.374,0.509-0.551,0.769   c-0.199,0.294-0.385,0.595-0.574,0.895c-0.166,0.263-0.336,0.524-0.494,0.792c-0.181,0.308-0.348,0.624-0.519,0.938   c-0.147,0.271-0.299,0.538-0.438,0.813c-0.163,0.322-0.31,0.652-0.461,0.98c-0.127,0.275-0.26,0.547-0.379,0.826   c-0.144,0.338-0.27,0.682-0.402,1.025c-0.106,0.277-0.22,0.552-0.318,0.832c-0.124,0.353-0.229,0.713-0.339,1.071   c-0.086,0.278-0.18,0.552-0.258,0.832c-0.103,0.371-0.186,0.747-0.274,1.122c-0.065,0.274-0.139,0.544-0.196,0.82   c-0.081,0.394-0.141,0.792-0.207,1.19c-0.043,0.263-0.097,0.523-0.134,0.787c-0.061,0.443-0.098,0.89-0.139,1.337   c-0.02,0.222-0.052,0.443-0.068,0.666c-0.046,0.672-0.07,1.347-0.07,2.026c0,0.52,0.018,1.038,0.046,1.554   c-2.511-0.936-5.449-0.457-7.537,1.498C5.962,46.743,5.53,47.75,5.53,48.784c0,0.968,0.363,1.89,1.025,2.601l10.508,11.201   C17.092,62.616,17.124,62.64,17.154,62.669z M76.611,60.845l8.679,8.495c1.555,1.522,1.582,4.025,0.06,5.581L71.256,89.32   c-0.745,0.761-1.747,1.18-2.821,1.18c-1.042,0-2.022-0.397-2.76-1.12l-8.679-8.495c-0.75-0.733-1.168-1.72-1.18-2.778   c-0.011-1.058,0.387-2.053,1.121-2.803l14.094-14.399c0.745-0.761,1.746-1.18,2.821-1.18   C74.893,59.725,75.874,60.122,76.611,60.845z M16.207,42.97c0-1.922,0.201-3.821,0.589-5.672   c1.666-7.949,6.777-15.007,14.159-19.229h1.04c0.552,0,1-0.447,1-1s-0.448-1-1-1h-0.57L28.57,5.5h14.563l-2.847,10.568h-3.099   c-0.552,0-1,0.447-1,1s0.448,1,1,1h3.584C49.863,23.284,55.505,32.8,55.505,42.97c0,2.234-0.277,4.433-0.795,6.558h-4.676   c-1.709,0-3.417,0.544-4.806,1.53l-2.511,1.771l-11.707-0.004c-1.661,0-3.124,0.807-4.061,2.036l-3.706-2.407   c-0.005-0.003-0.011-0.003-0.016-0.006c-0.005-0.003-0.007-0.008-0.012-0.011L22.06,51.74l-5.057-5.397   c-0.204-0.217-0.421-0.413-0.644-0.599C16.264,44.834,16.207,43.906,16.207,42.97z M7.53,48.784c0-0.499,0.202-0.967,0.561-1.311   c2.121-1.984,5.463-1.876,7.454,0.238l5.157,5.503c0.038,0.04,0.087,0.059,0.129,0.092c0.032,0.025,0.052,0.059,0.087,0.08   l1.248,0.752l3.903,2.535c-0.106,0.41-0.18,0.832-0.18,1.274c0,2.824,2.298,5.122,5.122,5.122H44.82c0.552,0,1-0.447,1-1   s-0.448-1-1-1H31.011c-1.722,0-3.122-1.4-3.122-3.122s1.4-3.122,3.122-3.122l12.024,0.004c0,0,0,0,0,0   c0.036,0,0.067-0.017,0.102-0.021c0.067-0.007,0.13-0.019,0.195-0.039c0.066-0.021,0.125-0.048,0.184-0.081   c0.031-0.017,0.065-0.021,0.095-0.042l2.772-1.956c1.056-0.75,2.352-1.163,3.65-1.163h7.915c1.641,0,3.197,0.622,4.379,1.751   l6.905,6.603L55.871,73.533l-0.752-0.561c-2.14-1.585-4.677-2.423-7.335-2.423H34.416c-2.805,0-5.542-0.966-7.706-2.72   l-8.242-6.669L8.016,50.019C7.698,49.678,7.53,49.25,7.53,48.784z"/><circle cx="61.372" cy="78.662" r="2.858"/><path d="M35.677,38.863l0.174-0.002c0.807,0,1.573,0.39,2.051,1.042c0.476,0.649,0.607,1.469,0.361,2.248   c-0.264,0.832-0.979,1.494-1.821,1.686c-0.192,0.044-0.387,0.066-0.578,0.066c-1.102,0-2.075-0.697-2.42-1.735   c-0.133-0.402-0.519-0.672-0.958-0.672c-0.333,0-0.651,0.163-0.849,0.435c-0.136,0.188-0.455,0.627-0.374,0.876   c0.419,1.291,1.752,2.443,2.813,2.968l0.278,0.138v1.843c0,0.495,0.88,1.025,1.5,1.025s1.5-0.53,1.5-1.025V45.9l0.294-0.134   c0.931-0.42,2.164-1.417,2.671-2.611c0.564-1.328,0.374-3.05-0.509-4.605c-0.695-1.227-2.228-2.05-3.812-2.05h-0.15   c-0.968,0-1.68-0.335-2.116-0.996c-0.475-0.72-0.546-1.522-0.205-2.323c0.31-0.723,0.975-1.254,1.778-1.421   c0.148-0.031,0.29-0.035,0.421-0.035h0.106c1.101,0,2.074,0.7,2.422,1.743c0.134,0.407,0.519,0.682,0.957,0.682   c0.335,0,0.652-0.162,0.848-0.435c0.162-0.225,0.463-0.644,0.386-0.873c-0.468-1.398-1.936-2.526-2.809-2.943l-0.285-0.136v-1.87   c0-0.495-0.881-1.025-1.5-1.025s-1.5,0.53-1.5,1.025v1.88l-0.297,0.132c-0.948,0.42-2.193,1.432-2.688,2.658   c-0.56,1.386-0.328,3.005,0.655,4.56C32.713,38.212,34.08,38.863,35.677,38.863z"/></g>
<!-- <text x="0" y="115" fill="#000000" font-size="5px" font-weight="bold" font-family="'Helvetica Neue', Helvetica, Arial-Unicode, Arial, Sans-serif">Created by Maxim Kulikov</text><text x="0" y="120" fill="#000000" font-size="5px" font-weight="bold" font-family="'Helvetica Neue', Helvetica, Arial-Unicode, Arial, Sans-serif">from the Noun Project</text> -->
</svg>
