<svg xmlns="http://www.w3.org/2000/svg" xmlns:xlink="http://www.w3.org/1999/xlink" version="1.1" x="0px" y="0px" viewBox="0 0 24 30" enable-background="new 0 0 24 24" xml:space="preserve"><g><g><path fill="#000000" d="M12.583,23.147c-6.149,0-11.152-5.495,13.597c-0.073,0-0.146-0.021-0.208-0.06l-2.031-1.277l-3.465,0.43    c-0.11,0.019-0.221-0.02-0.305-0.092l-2.808-2.434l-4.3,0.535c-0.132,0.023-0.266-0.035-0.352-0.141    C7.797,9.053,9.647,6.253,9.862,5.939c0.064-0.093,0.164-0.154,0.275-0.167l2.355-0.294l0.776-1.391    c0.061-0.109,0.17-0.182,0.294-0.197l2.729-0.339l1.14-1.04c0.159-0.145,0.407-0.135,0.553,0.026    c0.1464l3.43-0.426c0.089-0.014,0.18,0.009,0.257,0.056l2.031,1.277l0.612-0.076    c0.216-0.028,0.41,0.126,0.437,0.341c0.027,0.214-0.126,0.41-0.341,0.437l-0.751,0.093C22.527,13.596,22.51,13.597,22.495,13.597z    "/></g><g><path fill="#000000" d="M13.01,19.093L13.01,19.093c-0.729,0-1.259-0.987-1.358-1.185c-0.027-0.055-0.041-0.114-0.041-0.175v-1.15    l-1.949-1.068c-0.072-0.039-0.129-0.099-0.164-0.174l-1.281-2.664C8.17,12.581,8.165,12.47,8.202,12.37    c0.037-0.099,0.114-0.18,0.212-0.222l1.281-0.55c0.043-0.019,0.088-0.03,0.135-0.93z M12.393,17.637    c0.21,0.379,0.504,0.751,0.655,0.655l1.506-1.539l0.317-2.055l-1.64-2.515L9.94,12.345l-0.84,0.361l1.049,2.182l2.042,1.119    c0.125,0.069,0.203,0.2,0.203,0.343V17.637z"/></g><g><path fill="#000000" d="M13.094,23.158c-0.016,0-0.033-0.001-0.049-0.004c-0.215-0.026-0.367-0.222-0.34-0.436l0.158-1.273    l-5.092-1.986C7.646,19.41,7.555,19.3,7.529,19.168l-0.644-3.326l-3.061-1.036L2.85,16.089c-0.131,0.171-0.376,0.206-0.549,0.075    c-0.172-0.131-0.206-0.377-0.075-0.549l1.144-1.506c0.102-0.135,0.278-0.189,0.437-0.134l3.544,1.198    c0.133,0.045,0.232,0.159,0.259,0.296l0.646,3.337l5.174,2.019c0.167,0.066,0.268,0.235,0.246,0.413l-0.196,1.575    C13.457,23.012,13.288,23.158,13.094,23.158z"/></g><g><g><path fill="#000000" d="M1.881,12.398c-0.134,0-0.263-0.069-0.337-0.191l-0.49-0.821c-0.704-1.196-0.786-3.157-0.789-3.24     c0.058-2.723,2.32-4.271,2.416-4.335c1.547-1.171,1.87-2.254,1.874-2.264c0.04-0.141,0.155-0.249,0.299-0.278     C4.997,1.242,5.145,1.29,5.237,1.404c1.992,2.464,1.866,4.634,1.859,4.725c0.053,3.438-3.316,5.231-3.46,5.306     c-0.465,0.298-1.565,0.913-1.565,0.913C2.011,12.381,1.946,12.398,1.881,12.398z M1.048,8.139c0.001,0,0.079,1.825,0.68,2.847     l0.293,0.491c0.356-0.202,0.913-0.521,1.224-0.719c0.06-0.033,3.114-1.669,3.069-4.65c0.002-0.047,0.085-1.708-1.3-3.699     C4.721,2.921,4.162,3.671,3.136,4.448C3.098,4.474,1.098,5.852,1.048,8.139L1.048,8.139z"/></g><g><path fill="#000000" d="M1.792,12.35c-0.064,0-0.129-0.016-0.189-0.049c-0.189-0.105-0.258-0.343-0.153-0.533     c0.835-1.513,1.247-2.834,1.297-4.156c0.033-0.862,1.052-3.052,1.168-3.299c0.091-0.196,0.325-0.278,0.521-0.188     c0.196,0.093,0.28,0.325,0.188,0.521C4.21,5.524,3.549,7.114,3.529,7.642c-0.055,1.449-0.498,2.88-1.394,4.505     C2.064,12.276,1.93,12.35,1.792,12.35z"/></g><g><path fill="#000000" d="M3.065,8.618c-0.033,0-0.067-0.005-0.1-0.013C2.864,8.578,2.777,8.511,2.725,8.42l-0.98-1.715     C1.638,6.517,1.704,6.277,1.892,6.17c0.189-0.105,0.427-0.04,0.534,0.146l0.783,1.37L4.554,6.89C4.74,6.779,4.98,6.84,5.09,7.027     C5.2,7.213,5.139,7.453,4.952,7.563L3.265,8.562C3.204,8.599,3.135,8.618,3.065,8.618z"/></g></g></g>
<!-- <text x="0" y="39" fill="#000000" font-size="5px" font-weight="bold" font-family="'Helvetica Neue', Helvetica, Arial-Unicode, Arial, Sans-serif">Created by Atif Arshad</text><text x="0" y="44" fill="#000000" font-size="5px" font-weight="bold" font-family="'Helvetica Neue', Helvetica, Arial-Unicode, Arial, Sans-serif">from the Noun Project</text> -->
</svg>
