<svg xmlns="http://www.w3.org/2000/svg" xmlns:xlink="http://www.w3.org/1999/xlink" version="1.1" x="0px" y="0px" viewBox="0 0 100 125" enable-background="new 0 0 100 100" xml:space="preserve"><g><path d="M72,41.4l-24.1-8.7v-4.2c0-0.4-0.3-0.8-0.7-0.9l-11.2-4.1c-0.3-0.1-0.6-0.1-0.9,0.1c-0.3,0.2-0.4,0.5-0.4,0.8v26.1   c0,0.3,0.2,0.6,0.4,0.8c0.2,0.1,0.4,0.2,0.6,0.2c0.1,0,0.2,0,0.3-0.1l9.9-3.6v3.5c0,0.3,0.2,0.6,0.4,0.8c0.2,0.1,0.4,0.2,0.6,0.2   c0.1,0,0.2,0,0.3-0.1l24.8-9c0.4-0.1,0.7-0.5,0.7-0.9S72.4,41.5,72,41.4z M47.8,49.9V39.6c0-0.6-0.4-1-1-1s-1,0.4-1,1v6.1L36.6,49   V25.8l9.2,3.3v4.2c0,0,0,0,0,0c0,0.1,0,0.2,0,0.2c0,0.1,0,0.1,0,0.2c0,0.1,0.1,0.1,0.1,0.2c0,0,0.1,0.1,0.1,0.1   c0,0,0.1,0.1,0.2,0.1c0.1,0,0.1,0.1,0.2,0.1c0,0,0,0,0,0l22.2,8L47.8,49.9z"/><path d="M35.4,17.9c0-2.2-1.8-4-4-4c-2.2,0-4,1.8-4,4c0,1.9,1.3,3.4,3,3.9v63.3c0,0.6,0.4,1,1,1s1-0.4,1-1V21.8   C34.2,21.4,35.4,19.8,35.4,17.9z M31.4,20c-1.1,0-2-0.9-2-2s0.9-2,2-2c1.1,0,2,0.9,2,2S32.5,20,31.4,20z"/></g>
<!-- <text x="0" y="115" fill="#000000" font-size="5px" font-weight="bold" font-family="'Helvetica Neue', Helvetica, Arial-Unicode, Arial, Sans-serif">Created by Blair Adams</text><text x="0" y="120" fill="#000000" font-size="5px" font-weight="bold" font-family="'Helvetica Neue', Helvetica, Arial-Unicode, Arial, Sans-serif">from the Noun Project</text> -->
</svg>
