<svg xmlns="http://www.w3.org/2000/svg" xmlns:xlink="http://www.w3.org/1999/xlink" version="1.1" x="0px" y="0px" viewBox="0 0 100 125" enable-background="new 0 0 100 100" xml:space="preserve"><g display="none"><rect x="-723.065" y="-137.496" display="inline" fill="#000000" stroke="#000000" stroke-width="4" stroke-miterlimit="10" width="1220.125" height="751.558"/></g><g><path fill="none" d="M39.102,65.205c-0.577-0.154-1.123-0.409-1.611-0.756l-8.461-6.034c-2.294-1.636-2.83-4.834-1.194-7.129   c0.789-1.108,1.968-1.843,3.318-2.07c1.348-0.227,2.702,0.084,3.812,0.875l4.98,3.551v-0.151c-0.284-0.892-0.44-1.84-0.44-2.824   c0-0.984,0.156-1.933,0.44-2.824v-2.308c0-3.372-2.744-6.115-6.116-6.115h-4.878c-3.371,0-6.115,2.743-6.115,6.115V75.12h16.265   V65.205z"/><path fill="none" d="M31.391,35.61c4.435,0,8.043-3.608,8.043-8.044c0-4.435-3.608-8.044-8.043-8.044   c-4.435,0-8.044,3.608-8.044,8.044C23.347,32.002,26.956,35.61,31.391,35.61z"/><path fill="none" d="M24.958,85.966c0,2.03,1.651,3.682,3.681,3.682h5.504c2.03,0,3.681-1.651,3.681-3.682V78.42H24.958V85.966z"/><path fill="none" d="M66.777,27.869c5.394,0,9.784-4.39,9.784-9.785S72.171,8.3,66.777,8.3s-9.784,4.389-9.784,9.784   S61.382,27.869,66.777,27.869z"/><path fill="none" d="M57.65,53.696l5.055-3.604c1.108-0.791,2.46-1.102,3.811-0.875c1.35,0.226,2.528,0.961,3.319,2.07   c0.79,1.108,1.101,2.462,0.875,3.811c-0.226,1.349-0.961,2.528-2.069,3.318l-8.461,6.033c-0.487,0.348-1.034,0.602-1.611,0.757   v22.814c0,0.448-0.046,0.884-0.127,1.308c0.441,0.201,0.926,0.32,1.441,0.32h5.245V66.941h3.3v22.707h5.244   c1.926,0,3.492-1.566,3.492-3.492V39.082c0-4.14-3.369-7.509-7.509-7.509H63.9c-4.14,0-7.509,3.369-7.509,7.509v6.135   c1.111,1.535,1.774,3.415,1.774,5.451C58.164,51.729,57.978,52.745,57.65,53.696z"/><path fill="none" d="M33.049,52.779c-0.391-0.278-0.871-0.388-1.35-0.307c-0.48,0.08-0.898,0.34-1.175,0.73   c-0.279,0.391-0.388,0.871-0.308,1.35c0.08,0.479,0.339,0.897,0.73,1.176l6.302,4.494l5.154,3.973v23.824   c0,2.03,1.651,3.681,3.681,3.681h1.101V81.108h3.3V91.7h1.102c2.03,0,3.681-1.651,3.681-3.681l-0.014-24.228   c-0.002-0.04,0.006-0.078,0.007-0.118l2.414-1.65c0.192-0.046,0.393-0.122,0.588-0.262l8.461-6.033   c0.813-0.58,1.002-1.713,0.422-2.526c-0.279-0.391-0.696-0.651-1.175-0.731c-0.479-0.078-0.958,0.029-1.35,0.307l-7.628,5.439   l-3.615,2.126c-0.066-0.031-0.133-0.058-0.195-0.098c-0.728-0.469-1.563-0.717-2.416-0.717h-3.864   c-0.853,0-1.689,0.248-2.418,0.717l-6.574-4.001L33.049,52.779z"/><path fill="none" d="M46.552,56.245c0.117-0.005,0.233-0.016,0.35-0.016h3.864c0.117,0,0.233,0.011,0.35,0.016   c2.196-0.902,3.748-3.061,3.748-5.578c0-3.324-2.706-6.029-6.03-6.029c-3.324,0-6.029,2.704-6.029,6.029   C42.805,53.185,44.357,55.344,46.552,56.245z"/><path d="M21.658,78.42v7.546c0,3.856,3.126,6.982,6.982,6.982h5.503c2.167,0,4.106-0.992,5.387-2.546   C40.506,93.079,43.071,95,46.083,95h5.504c2.223,0,4.201-1.047,5.481-2.671c0.859,0.393,1.81,0.618,2.814,0.618h13.79   c3.751,0,6.792-3.041,6.792-6.792V39.082c0-4.491-2.753-8.348-6.66-9.978c4.096-2.621,6.651-7.448,5.939-12.801   c-0.779-5.859-5.566-10.547-11.438-11.216c-7.895-0.899-14.611,5.279-14.611,12.997c0,4.628,2.422,8.693,6.058,11.02   c-3.907,1.63-6.66,5.487-6.66,9.978v3.294c-1.278-0.658-2.722-1.037-4.256-1.037c-2.211,0-4.241,0.777-5.842,2.066   c-0.667-2.868-2.645-5.233-5.269-6.432c2.96-1.999,4.93-5.356,5.009-9.17c0.126-6.095-4.801-11.337-10.892-11.573   c-6.458-0.25-11.793,4.931-11.793,11.335c0,3.912,1.99,7.367,5.011,9.407c-3.252,1.485-5.521,4.76-5.521,8.562v30.763   C19.537,77.47,20.486,78.42,21.658,78.42z M37.823,85.966c0,2.03-1.651,3.682-3.681,3.682h-5.504c-2.03,0-3.681-1.651-3.681-3.682   V78.42h12.866V85.966z M56.993,18.084c0-5.395,4.39-9.784,9.784-9.784s9.784,4.389,9.784,9.784s-4.39,9.785-9.784,9.785   S56.993,23.479,56.993,18.084z M56.39,39.082c0-4.14,3.369-7.509,7.509-7.509h5.754c4.14,0,7.509,3.369,7.509,7.509v47.074   c0,1.925-1.566,3.492-3.492,3.492h-5.244V66.941h-3.3v22.707h-5.245c-0.515,0-1-0.119-1.441-0.32   c0.081-0.424,0.127-0.861,0.127-1.308V65.205c0.577-0.154,1.124-0.409,1.611-0.757l8.461-6.033c1.108-0.79,1.843-1.969,2.069-3.318   c0.226-1.349-0.085-2.703-0.875-3.811c-0.79-1.109-1.969-1.843-3.319-2.07c-1.351-0.227-2.703,0.084-3.811,0.875l-5.055,3.604   c0.328-0.951,0.514-1.967,0.514-3.028c0-2.036-0.663-3.915-1.774-5.451V39.082z M48.834,44.639c3.324,0,6.03,2.704,6.03,6.029   c0,2.517-1.552,4.676-3.748,5.578c-0.117-0.005-0.233-0.016-0.35-0.016h-3.864c-0.117,0-0.233,0.011-0.35,0.016   c-2.196-0.902-3.747-3.061-3.747-5.578C42.805,47.343,45.51,44.639,48.834,44.639z M44.485,60.247   c0.729-0.469,1.565-0.717,2.418-0.717h3.864c0.853,0,1.688,0.248,2.416,0.717c0.062,0.04,0.129,0.067,0.195,0.098l3.615-2.126   l7.628-5.439c0.392-0.279,0.87-0.385,1.35-0.307c0.48,0.08,0.897,0.34,1.175,0.731c0.58,0.813,0.391,1.946-0.422,2.526   l-8.461,6.033c-0.195,0.14-0.396,0.216-0.588,0.262l-2.414,1.65c-0.001,0.04-0.009,0.078-0.007,0.118l0.014,24.228   c0,2.03-1.651,3.681-3.681,3.681h-1.102V81.108h-3.3V91.7h-1.101c-2.03,0-3.681-1.651-3.681-3.681V64.195l-5.154-3.973   l-6.302-4.494c-0.391-0.279-0.65-0.696-0.73-1.176c-0.08-0.48,0.029-0.959,0.308-1.35c0.278-0.391,0.696-0.65,1.175-0.73   c0.479-0.08,0.959,0.029,1.35,0.307l4.862,3.467L44.485,60.247z M23.347,27.566c0-4.435,3.609-8.044,8.044-8.044   c4.435,0,8.043,3.608,8.043,8.044c0,4.435-3.608,8.044-8.043,8.044C26.956,35.61,23.347,32.002,23.347,27.566z M22.837,45.536   c0-3.372,2.743-6.115,6.115-6.115h4.878c3.372,0,6.116,2.743,6.116,6.115v2.308c-0.284,0.891-0.44,1.84-0.44,2.824   c0,0.984,0.156,1.933,0.44,2.824v0.151l-4.98-3.551c-1.11-0.79-2.464-1.102-3.812-0.875c-1.35,0.226-2.528,0.961-3.318,2.07   c-1.636,2.294-1.1,5.492,1.194,7.129l8.461,6.034c0.488,0.347,1.034,0.602,1.611,0.756v9.915H22.837V45.536z"/></g>
<!-- <text x="0" y="115" fill="#000000" font-size="5px" font-weight="bold" font-family="'Helvetica Neue', Helvetica, Arial-Unicode, Arial, Sans-serif">Created by Oksana Latysheva</text><text x="0" y="120" fill="#000000" font-size="5px" font-weight="bold" font-family="'Helvetica Neue', Helvetica, Arial-Unicode, Arial, Sans-serif">from the Noun Project</text> -->
</svg>
