<svg xmlns="http://www.w3.org/2000/svg" xmlns:xlink="http://www.w3.org/1999/xlink" version="1.1" x="0px" y="0px" viewBox="0 0 100 125" style="enable-background:new 0 0 100 100;" xml:space="preserve"><path d="M78,77c0,2.206-1.794,4-4,4H26c-2.206,0-4-1.794-4-4s1.794-4,4-4h48C76.206,73,78,74.794,78,77z M37,19h-3  c-2.206,0-4,1.794-4,4v36h7V19z M53,19h-6v40h6V19z M61,19h-6v40h6V19z M70,23c0-2.206-1.794-4-4-4h-3v40h7V23z M45,19h-6v40h6V19z   M70,71H30V61h40V71z M42.458,66.474l1.512-1.439l-2.069-0.275L41,62.877l-0.901,1.883l-2.069,0.275l1.512,1.439l-0.378,2.053  L41,67.533l1.836,0.994L42.458,66.474z M51.458,66.474l1.512-1.439l-2.069-0.275L50,62.877l-0.901,1.883l-2.069,0.275l1.512,1.439  l-0.378,2.053L50,67.533l1.836,0.994L51.458,66.474z M60.458,66.474l1.512-1.439l-2.069-0.275L59,62.877l-0.901,1.883l-2.069,0.275  l1.512,1.439l-0.378,2.053L59,67.533l1.836,0.994L60.458,66.474z"/>
<!-- <text x="0" y="115" fill="#000000" font-size="5px" font-weight="bold" font-family="'Helvetica Neue', Helvetica, Arial-Unicode, Arial, Sans-serif">Created by Setyo Ari Wibowo</text><text x="0" y="120" fill="#000000" font-size="5px" font-weight="bold" font-family="'Helvetica Neue', Helvetica, Arial-Unicode, Arial, Sans-serif">from the Noun Project</text> -->
</svg>
